<svg width="74" height="73" viewBox="0 0 74 73" fill="none" xmlns="http://www.w3.org/2000/svg">
<circle cx="36.9252" cy="36.5" r="36.4252" fill="#75E8E7"/>
<path d="M34.7686 25.8245C35.2697 25.8245 35.6991 26.0034 36.057 26.3613C36.3433 26.7192 36.4865 27.1487 36.4865 27.6497C36.4865 28.2223 36.3791 28.795 36.1644 29.3676L30.474 44.0767C30.1161 44.7925 29.7582 45.3651 29.4003 45.7946C28.9708 46.2956 28.2909 46.5461 27.3604 46.5461L23.8173 46.5461C23.2447 46.5461 22.8152 46.3314 22.5289 45.9019C22.171 45.4725 22.0636 44.8998 22.2068 44.1841L24.5688 28.9381C24.6404 28.0792 24.9267 27.3276 25.4278 26.6834C25.9288 26.1108 26.6804 25.8245 27.6825 25.8245L34.7686 25.8245ZM51.9472 25.8245C52.4482 25.8245 52.8777 26.0034 53.2356 26.3613C53.5219 26.7192 53.665 27.1487 53.665 27.6497C53.665 28.2223 53.5577 28.795 53.3429 29.3676L47.6525 44.0767C47.2946 44.7925 46.901 45.3651 46.4715 45.7946C46.042 46.2956 45.3978 46.5461 44.5389 46.5461H40.9958C40.4232 46.5461 39.9938 46.3314 39.7074 45.9019C39.3496 45.4725 39.2422 44.8998 39.3853 44.1841L41.7474 28.9381C41.819 28.0792 42.1053 27.3276 42.6063 26.6834C43.1074 26.1108 43.8231 25.8245 44.7536 25.8245L51.9472 25.8245Z" fill="#27104E"/>
</svg>
